<?xml version="1.0" encoding="UTF-8" standalone="no"?>
<!-- Created with Inkscape (http://www.inkscape.org/) -->

<svg
   xmlns:dc="http://purl.org/dc/elements/1.1/"
   xmlns:cc="http://creativecommons.org/ns#"
   xmlns:rdf="http://www.w3.org/1999/02/22-rdf-syntax-ns#"
   xmlns:svg="http://www.w3.org/2000/svg"
   xmlns="http://www.w3.org/2000/svg"
   xmlns:sodipodi="http://sodipodi.sourceforge.net/DTD/sodipodi-0.dtd"
   xmlns:inkscape="http://www.inkscape.org/namespaces/inkscape"
   width="50.525482mm"
   height="12.98801mm"
   viewBox="0 0 50.525482 12.98801"
   version="1.1"
   id="svg8"
   inkscape:version="0.92.4 (5da689c313, 2019-01-14)"
   sodipodi:docname="vectorsql.svg"
   inkscape:export-filename="/home/pavlo/Dropbox/Images/Logos/vectorsql.png"
   inkscape:export-xdpi="804.34998"
   inkscape:export-ydpi="804.34998">
  <defs
     id="defs2" />
  <sodipodi:namedview
     id="base"
     pagecolor="#ffffff"
     bordercolor="#666666"
     borderopacity="1.0"
     inkscape:pageopacity="0.0"
     inkscape:pageshadow="2"
     inkscape:zoom="2.8"
     inkscape:cx="131.15039"
     inkscape:cy="21.072145"
     inkscape:document-units="mm"
     inkscape:current-layer="layer1"
     showgrid="false"
     fit-margin-top="0"
     fit-margin-left="0"
     fit-margin-right="0"
     fit-margin-bottom="0"
     inkscape:window-width="2460"
     inkscape:window-height="1403"
     inkscape:window-x="0"
     inkscape:window-y="0"
     inkscape:window-maximized="1" />
  <metadata
     id="metadata5">
    <rdf:RDF>
      <cc:Work
         rdf:about="">
        <dc:format>image/svg+xml</dc:format>
        <dc:type
           rdf:resource="http://purl.org/dc/dcmitype/StillImage" />
        <dc:title />
      </cc:Work>
    </rdf:RDF>
  </metadata>
  <g
     inkscape:label="Layer 1"
     inkscape:groupmode="layer"
     id="layer1"
     transform="translate(-21.539512,-113.61786)">
    <g
       aria-label="V"
       style="font-style:normal;font-weight:normal;font-size:10.58333302px;line-height:125%;font-family:'Times New Roman';-inkscape-font-specification:'Times New Roman';letter-spacing:0px;word-spacing:0px;fill:#000000;fill-opacity:1;stroke:none;stroke-width:0.26458332px;stroke-linecap:butt;stroke-linejoin:miter;stroke-opacity:1"
       id="text4749">
      <path
         d="m 31.220231,113.61786 h 1.472778 l -5.486314,12.98801 -5.667183,-12.98801 h 1.438328 l 4.194404,9.44817 z"
         style="font-style:normal;font-variant:normal;font-weight:bold;font-stretch:normal;font-size:17.63888931px;font-family:Sawasdee;-inkscape-font-specification:Sawasdee;fill:#ed6663;fill-opacity:1;stroke-width:0.26458332px"
         id="path89" />
    </g>
    <g
       aria-label="ectorSQL"
       style="font-style:normal;font-weight:normal;font-size:10.58333302px;line-height:125%;font-family:'Times New Roman';-inkscape-font-specification:'Times New Roman';letter-spacing:0px;word-spacing:0px;fill:#000000;fill-opacity:1;stroke:none;stroke-width:0.26458332px;stroke-linecap:butt;stroke-linejoin:miter;stroke-opacity:1"
       id="text4753">
      <path
         d="m 35.390229,121.40484 0.165365,0.0724 q -0.490926,1.27124 -1.483114,1.63814 -0.356567,0.12919 -0.759643,0.12919 -0.98702,0 -1.524455,-0.73897 -0.454752,-0.62529 -0.454752,-1.62781 0,-1.09037 0.527099,-1.77767 0.118856,-0.15503 0.258382,-0.27905 0.620118,-0.54777 1.42627,-0.54777 0.769979,0 1.260905,0.50126 l 0.09302,0.10335 q 0.273885,0.34623 0.377238,0.83716 l 0.07751,0.48576 q 0,0.005 0,0.0103 h -3.255615 q 0.02584,0.76481 0.211873,1.2299 0.03101,0.0775 0.07235,0.16537 0.45992,0.9095 1.364258,0.9095 0.656291,0 1.126546,-0.44958 0.253215,-0.24288 0.516764,-0.66146 z m -3.271118,-1.53479 h 2.160075 q -0.118856,-0.78548 -0.408244,-1.03353 -0.217041,-0.18087 -0.630452,-0.18087 -0.831991,0 -1.064535,0.90951 -0.03617,0.13952 -0.05684,0.30489 z"
         style="font-style:normal;font-variant:normal;font-weight:normal;font-stretch:normal;font-family:Likhan;-inkscape-font-specification:Likhan;fill:#0f4c81;fill-opacity:1;stroke-width:0.26458332px"
         id="path92" />
      <path
         d="m 39.973929,121.49269 0.149861,0.093 q -0.377238,0.73897 -0.697632,1.05936 -0.05168,0.0517 -0.10852,0.10336 -0.573608,0.49609 -1.281576,0.49609 -0.857828,0 -1.421101,-0.63562 -0.583944,-0.66146 -0.589112,-1.72083 0,-1.11104 0.630453,-1.82417 0.09302,-0.10336 0.19637,-0.19637 0.63562,-0.55811 1.405599,-0.59428 0.04651,0 0.08785,0 0.728638,0 1.219564,0.37723 0.408244,0.31006 0.408244,0.71314 0,0.23771 -0.232544,0.37207 l -0.124024,0.0517 q -0.07235,0.0207 -0.149861,0.0207 -0.273885,0 -0.428915,-0.31523 -0.04134,-0.0775 -0.06718,-0.17053 l -0.06718,-0.23255 q -0.09302,-0.36173 -0.289388,-0.45475 l -0.134359,-0.0413 q -0.08268,-0.0155 -0.201538,-0.0155 -0.676962,0 -1.080038,0.57361 -0.356567,0.50126 -0.356567,1.27124 0,0.98702 0.5271,1.56579 0.449584,0.4961 1.111043,0.4961 0.558105,0 0.961181,-0.35657 0.24288,-0.21704 0.532268,-0.63562 z"
         style="font-style:normal;font-variant:normal;font-weight:normal;font-stretch:normal;font-family:Likhan;-inkscape-font-specification:Likhan;fill:#0f4c81;fill-opacity:1;stroke-width:0.26458332px"
         id="path94" />
      <path
         d="m 43.152029,118.3766 v 0.34106 h -1.069702 v 3.02824 q 0,0.75448 0.320394,0.90434 0.09819,0.0465 0.232544,0.0465 0.304891,0 0.583943,-0.31006 0.02584,-0.031 0.05168,-0.062 l 0.134358,0.11885 q -0.527099,0.78549 -1.266072,0.80099 -0.945679,0 -0.945679,-1.34359 v -3.18327 h -0.558105 q -0.04134,-0.0258 -0.04134,-0.0723 0,-0.0879 0.175699,-0.20154 0.191203,-0.0517 0.687297,-0.67179 0.1757,-0.22221 0.341064,-0.45992 0.08268,-0.1292 0.211874,-0.29973 0.06201,0 0.06718,0.0724 l 0.0052,0.0672 v 1.22473 z"
         style="font-style:normal;font-variant:normal;font-weight:normal;font-stretch:normal;font-family:Likhan;-inkscape-font-specification:Likhan;fill:#0f4c81;fill-opacity:1;stroke-width:0.26458332px"
         id="path96" />
      <path
         d="m 46.035573,118.27325 q 0.98702,0 1.638143,0.64078 0.645955,0.63562 0.687297,1.62781 0.0052,0.062 0.0052,0.12403 0,1.02836 -0.604614,1.75183 -0.573608,0.69246 -1.44694,0.80615 -0.149862,0.0207 -0.299723,0.0207 -0.945679,0 -1.596802,-0.64596 -0.645955,-0.63562 -0.718302,-1.63297 -0.0052,-0.10852 -0.0052,-0.21704 0,-1.08521 0.645955,-1.77767 0.63562,-0.67179 1.632976,-0.69763 0.03101,0 0.06201,0 z m -0.139526,0.29455 q -0.63562,0 -0.976685,0.56328 l -0.10852,0.2067 q -0.160197,0.38757 -0.160197,0.894 0,1.13689 0.428914,1.97404 0.0155,0.0362 0.03617,0.0672 0.253214,0.48576 0.718302,0.63046 0.149862,0.0465 0.304891,0.0465 0.713135,0 1.043864,-0.70796 0.227376,-0.48059 0.227376,-1.20923 0,-1.18856 -0.501261,-1.88619 -0.408244,-0.57878 -1.012858,-0.57878 z"
         style="font-style:normal;font-variant:normal;font-weight:normal;font-stretch:normal;font-family:Likhan;-inkscape-font-specification:Likhan;fill:#0f4c81;fill-opacity:1;stroke-width:0.26458332px"
         id="path98" />
      <path
         d="m 48.753755,119.01222 v -0.16536 q 0.837158,-0.26872 1.565796,-0.57361 l 0.05684,0.0207 v 0.97151 q 0.475423,-0.68729 0.806152,-0.87333 0.206706,-0.11885 0.45992,-0.11885 0.418579,0 0.542603,0.32556 0.04134,0.10335 0.04134,0.23254 0,0.36691 -0.268717,0.45992 -0.06718,0.0207 -0.144694,0.0207 -0.1757,0 -0.423747,-0.21187 -0.165365,-0.1602 -0.273885,-0.1602 -0.211874,0 -0.475423,0.30489 -0.26355,0.31006 -0.26355,0.56328 v 2.38228 q 0,0.46509 0.191203,0.62012 0.186035,0.14986 0.707967,0.17053 v 0.1602 h -2.542481 v -0.1602 q 0.501262,-0.093 0.625285,-0.20671 0.124024,-0.11885 0.129191,-0.45992 0,-0.031 0,-0.062 v -2.64583 q 0,-0.50643 -0.19637,-0.60462 -0.06718,-0.031 -0.165365,-0.031 -0.170532,0 -0.37207,0.0413 z"
         style="font-style:normal;font-variant:normal;font-weight:normal;font-stretch:normal;font-family:Likhan;-inkscape-font-specification:Likhan;fill:#0f4c81;fill-opacity:1;stroke-width:0.26458332px"
         id="path100" />
      <path
         d="m 56.923797,115.98915 0.237712,2.25309 h -0.268717 q -0.170533,-0.65112 -0.423747,-0.98702 -0.09302,-0.11885 -0.222209,-0.25321 -0.552938,-0.57878 -1.286743,-0.57878 -0.614949,0 -0.914673,0.40308 -0.186035,0.24288 -0.186035,0.57877 0,0.53744 0.599447,1.02836 0.346232,0.28422 0.956014,0.62012 1.369425,0.73897 1.772501,1.48311 0.206706,0.38241 0.206706,0.82683 0,0.78031 -0.573608,1.32808 l -0.191203,0.1602 q -0.501262,0.3669 -1.16272,0.42891 -0.113688,0.0103 -0.232544,0.0103 -0.620117,0 -1.250569,-0.24288 -0.310059,-0.11886 -0.496094,-0.11886 -0.180868,0 -0.258382,0.19637 -0.03101,0.0724 -0.03617,0.15503 h -0.237711 l -0.315227,-2.24792 h 0.24288 q 0.573608,1.39009 1.421101,1.74149 0.33073,0.13436 0.718303,0.13436 0.682129,0 1.043864,-0.44441 0.258382,-0.31006 0.258382,-0.74931 0,-0.39791 -0.149862,-0.61495 -0.403076,-0.62012 -1.576131,-1.24024 -1.100708,-0.57877 -1.441772,-1.20406 -0.211874,-0.37724 -0.211874,-0.85783 0,-0.83199 0.563273,-1.32291 0.511597,-0.45476 1.188558,-0.48576 0.04134,0 0.08268,0 0.511596,0 1.121378,0.23254 0.273885,0.12403 0.465088,0.12403 0.273885,0 0.335897,-0.35657 z"
         style="font-style:normal;font-variant:normal;font-weight:normal;font-stretch:normal;font-family:Likhan;-inkscape-font-specification:Likhan;fill:#0f4c81;fill-opacity:1;stroke-width:0.26458332px"
         id="path102" />
      <path
         d="m 65.507253,124.82582 v 0.18603 h -0.06718 q -0.113688,0.0155 -0.366902,0.0155 -2.123902,0 -3.281454,-0.90951 -0.180867,-0.13953 -0.325561,-0.29972 -0.04134,-0.0413 -0.07751,-0.0827 l -0.496093,-0.58395 q -0.754476,-0.25321 -1.147217,-0.57361 -0.170532,-0.13436 -0.356568,-0.33589 -0.940511,-1.01803 -0.940511,-2.58382 0,-1.44694 0.795817,-2.43913 0.754476,-0.94051 1.963705,-1.16789 0.341064,-0.062 0.697632,-0.062 1.338419,0 2.268595,0.81649 0.165364,0.14469 0.310058,0.30489 0.821656,0.94051 0.8785,2.33577 0.0052,0.093 0.0052,0.1912 0,1.77767 -1.18339,2.83704 -0.496094,0.42892 -1.012858,0.59945 l -0.382405,0.0982 q -0.09302,0.0207 -0.196371,0.0413 0.800985,1.0387 1.705322,1.38493 0.537435,0.20671 1.209229,0.22738 z m -3.570842,-8.45943 q -0.904337,0 -1.545125,0.68729 -0.434082,0.49093 -0.63562,1.49345 -0.103353,0.52193 -0.103353,1.04903 0,1.37976 0.490926,2.2686 0.180868,0.32039 0.408244,0.5271 0.589111,0.51676 1.353923,0.51676 0.816487,0 1.410766,-0.5581 0.05684,-0.0568 0.113688,-0.11886 0.413412,-0.47542 0.620117,-1.48311 0.113689,-0.56328 0.113689,-1.13172 0,-1.35392 -0.516765,-2.22208 -0.1757,-0.29973 -0.397908,-0.4961 -0.516765,-0.46508 -1.157552,-0.5271 -0.07752,-0.005 -0.15503,-0.005 z"
         style="font-style:normal;font-variant:normal;font-weight:normal;font-stretch:normal;font-family:Likhan;-inkscape-font-specification:Likhan;fill:#0f4c81;fill-opacity:1;stroke-width:0.26458332px"
         id="path104" />
      <path
         d="m 71.801444,121.30149 h 0.263549 l -0.511596,1.83968 h -5.689575 v -0.20154 q 0.563273,-0.0362 0.738973,-0.20671 0.175699,-0.17053 0.180867,-0.68213 0,-0.031 0,-0.062 v -4.70255 q 0,-0.53227 -0.149862,-0.71314 -0.155029,-0.1757 -0.661458,-0.22737 -0.05168,-0.005 -0.10852,-0.0103 v -0.20154 h 2.98173 v 0.20154 q -0.604615,0.0362 -0.785482,0.19637 l -0.07751,0.0879 q -0.07235,0.10335 -0.09819,0.28939 -0.02067,0.14469 -0.02067,0.37724 v 5.00744 q 0,0.26355 0.144694,0.34624 0.155029,0.0879 0.764811,0.0879 h 0.707967 q 1.291911,0 1.829345,-0.60462 0.232544,-0.25838 0.490927,-0.82165 z"
         style="font-style:normal;font-variant:normal;font-weight:normal;font-stretch:normal;font-family:Likhan;-inkscape-font-specification:Likhan;fill:#0f4c81;fill-opacity:1;stroke-width:0.26458332px"
         id="path106" />
    </g>
  </g>
</svg>
